# xmcd CD database file
#
# Track frame offsets:
#	150
#	16652
#	33960
#	49800
#	67317
#	83802
#	101270
#	120832
#	140607
#	157017
#	170040
#	186450
#	200110
#	214925
#
# Disc length: 3056 seconds
#
# Revision: 0
# Processed by: cddbd v1.4PL0 Copyright (c) Steve Scherf et al.
# Submitted via: CDex 1.50beta9
#
DISCID=c90bee0e
DTITLE=Kenny Rogers - Pure Gold
DYEAR=1997
DGENRE=Country
TTITLE0=Lucille
TTITLE1=Kenny Rogers And Sheena Easton/We've Got Tonight
TTITLE2=The Gamler
TTITLE3=Lady
TTITLE4=Kenny Rogers And Kim Carnes/Don't Fall In Love With A Dreamer
TTITLE5=All My Life
TTITLE6=Coward Of The County
TTITLE7=Through The Years
TTITLE8=You Decorated My Life
TTITLE9=Love Or Something Like It
TTITLE10=Love Will Turn You Around
TTITLE11=Kenny Rogers And Dottie West/What Are We Doin' In Love
TTITLE12=Share Your Love With Me
TTITLE13=Daytime Friends
EXTD=YEAR: 1997
EXTT0=
EXTT1=
EXTT2=
EXTT3=
EXTT4=
EXTT5=
EXTT6=
EXTT7=
EXTT8=
EXTT9=
EXTT10=
EXTT11=
EXTT12=
EXTT13=
PLAYORDER=
